<svg width="205" height="50" viewBox="0 0 205 50" fill="none" xmlns="http://www.w3.org/2000/svg">
<path d="M16.16 37.264C16.3733 37.4347 16.736 37.52 17.248 37.52C17.76 37.52 18.1227 37.4347 18.336 37.264C18.464 37.136 18.528 37.0507 18.528 37.008V37.136V37.328C18.528 37.4987 18.4 37.6267 18.144 37.712C17.888 37.7973 17.5893 37.84 17.248 37.84C16.9067 37.84 16.608 37.7973 16.352 37.712C16.096 37.6267 15.968 37.4987 15.968 37.328V37.136V37.008C15.968 37.0507 16.032 37.136 16.16 37.264ZM13.216 35.664C13.472 35.8347 13.856 35.92 14.368 35.92C14.88 35.92 15.2427 35.8347 15.456 35.664C15.584 35.536 15.648 35.4507 15.648 35.408V35.536V35.728C15.648 35.8987 15.52 36.0267 15.264 36.112C15.008 36.1973 14.7093 36.24 14.368 36.24C14.0267 36.24 13.728 36.1973 13.472 36.112C13.1733 36.0267 13.024 35.8987 13.024 35.728V35.536V35.408C13.024 35.4507 13.088 35.536 13.216 35.664ZM16.16 13.008C16.3733 13.2213 16.736 13.328 17.248 13.328C17.76 13.328 18.1227 13.2213 18.336 13.008C18.464 12.9227 18.528 12.8373 18.528 12.752V12.88V13.072C18.528 13.2427 18.4 13.3707 18.144 13.456C17.888 13.584 17.5893 13.648 17.248 13.648C16.9067 13.648 16.608 13.584 16.352 13.456C16.096 13.3707 15.968 13.2427 15.968 13.072V12.88V12.752C15.968 12.8373 16.032 12.9227 16.16 13.008ZM13.216 11.408C13.472 11.6213 13.856 11.728 14.368 11.728C14.88 11.728 15.2427 11.6213 15.456 11.408C15.584 11.3227 15.648 11.2373 15.648 11.152V11.28V11.472C15.648 11.6427 15.52 11.7707 15.264 11.856C15.008 11.984 14.7093 12.048 14.368 12.048C14.0267 12.048 13.728 11.984 13.472 11.856C13.1733 11.7707 13.024 11.6427 13.024 11.472V11.28V11.152C13.024 11.2373 13.088 11.3227 13.216 11.408ZM20.32 12.432C20.576 12.6027 20.96 12.688 21.472 12.688C21.984 12.688 22.3467 12.6027 22.56 12.432C22.688 12.304 22.752 12.2187 22.752 12.176V12.304V12.496C22.752 12.6667 22.6027 12.7947 22.304 12.88C22.0907 12.9653 21.8133 13.008 21.472 13.008C21.1307 13.008 20.832 12.9653 20.576 12.88C20.2773 12.7947 20.128 12.6667 20.128 12.496V12.304V12.176C20.128 12.2187 20.192 12.304 20.32 12.432ZM17.44 10.832C17.6533 11.0027 18.016 11.088 18.528 11.088C19.04 11.088 19.4027 11.0027 19.616 10.832C19.7867 10.704 19.872 10.6187 19.872 10.576V10.704V10.896C19.872 11.0667 19.7227 11.1947 19.424 11.28C19.168 11.3653 18.8693 11.408 18.528 11.408C18.1867 11.408 17.888 11.3653 17.632 11.28C17.376 11.1947 17.248 11.0667 17.248 10.896V10.704V10.576C17.248 10.6187 17.312 10.704 17.44 10.832ZM3.552 5.072C3.808 5.24267 4.192 5.328 4.704 5.328C5.216 5.328 5.57867 5.24267 5.792 5.072C5.92 4.944 5.984 4.83733 5.984 4.752V4.944V5.136C5.984 5.30666 5.83467 5.43466 5.536 5.52C5.32267 5.60533 5.04533 5.648 4.704 5.648C4.36267 5.648 4.064 5.60533 3.808 5.52C3.50933 5.43466 3.36 5.30666 3.36 5.136V4.944V4.752C3.36 4.83733 3.424 4.944 3.552 5.072ZM0.672 3.472C0.885333 3.64266 1.248 3.728 1.76 3.728C2.272 3.728 2.656 3.64266 2.912 3.472C3.04 3.344 3.104 3.23733 3.104 3.152V3.344V3.536C3.104 3.70666 2.95467 3.83466 2.656 3.92C2.4 4.00533 2.10133 4.048 1.76 4.048C1.41867 4.048 1.12 4.00533 0.864 3.92C0.608 3.83466 0.48 3.70666 0.48 3.536V3.344V3.152C0.48 3.23733 0.544 3.344 0.672 3.472ZM7.776 4.496C7.98933 4.66667 8.352 4.752 8.864 4.752C9.376 4.752 9.73867 4.66667 9.952 4.496C10.08 4.368 10.144 4.26133 10.144 4.176V4.368V4.496C10.144 4.66667 10.016 4.816 9.76 4.944C9.504 5.02933 9.20533 5.072 8.864 5.072C8.52267 5.072 8.224 5.02933 7.968 4.944C7.712 4.816 7.584 4.66667 7.584 4.496V4.368V4.176C7.584 4.26133 7.648 4.368 7.776 4.496ZM4.832 2.896C5.088 3.06666 5.472 3.152 5.984 3.152C6.496 3.152 6.85867 3.06666 7.072 2.896C7.2 2.768 7.264 2.66133 7.264 2.576V2.768V2.896C7.264 3.06666 7.136 3.216 6.88 3.344C6.624 3.42933 6.32533 3.472 5.984 3.472C5.64267 3.472 5.344 3.42933 5.088 3.344C4.78933 3.216 4.64 3.06666 4.64 2.896V2.768V2.576C4.64 2.66133 4.704 2.768 4.832 2.896ZM29.216 17.296V41.616L24.992 42.192V47.056L8.288 49.36V44.56L4.064 45.136V6.288L12.448 5.072V13.84C12.6187 13.8827 12.832 13.904 13.088 13.904C13.5573 13.904 13.92 13.7973 14.176 13.584C14.304 13.4987 14.368 13.4133 14.368 13.328V13.52V13.648C14.368 13.8187 14.2187 13.968 13.92 14.096C13.7067 14.1813 13.4293 14.224 13.088 14.224C12.8747 14.224 12.6613 14.2027 12.448 14.16V14.8L24.992 13.008V16.912C25.2053 16.9547 25.4187 16.976 25.632 16.976C26.144 16.976 26.5067 16.8907 26.72 16.72C26.848 16.592 26.912 16.4853 26.912 16.4V16.592V16.72C26.912 16.8907 26.784 17.04 26.528 17.168C26.272 17.2533 25.9733 17.296 25.632 17.296C25.4187 17.296 25.2053 17.2747 24.992 17.232V17.872L29.216 17.296ZM20.832 37.84V23.312L12.448 24.528V38.096C12.6187 38.1387 12.832 38.16 13.088 38.16C13.6 38.16 13.9627 38.0533 14.176 37.84C14.304 37.7547 14.368 37.6693 14.368 37.584V37.712V37.904C14.368 38.0747 14.2187 38.2027 13.92 38.288C13.7067 38.416 13.4293 38.48 13.088 38.48C12.8747 38.48 12.6613 38.4587 12.448 38.416V39.056L20.832 37.84ZM29.5995 5.136C29.8555 5.30666 30.2395 5.392 30.7515 5.392C31.2635 5.392 31.6262 5.30666 31.8395 5.136C31.9675 5.008 32.0315 4.90133 32.0315 4.816V5.008V5.136C32.0315 5.30666 31.9035 5.456 31.6475 5.584C31.3915 5.66933 31.0928 5.712 30.7515 5.712C30.4102 5.712 30.1115 5.66933 29.8555 5.584C29.5568 5.456 29.4075 5.30666 29.4075 5.136V5.008V4.816C29.4075 4.90133 29.4715 5.008 29.5995 5.136ZM26.7195 3.536C26.9328 3.70666 27.2955 3.792 27.8075 3.792C28.3195 3.792 28.7035 3.70666 28.9595 3.536C29.0875 3.408 29.1515 3.30133 29.1515 3.216V3.408V3.536C29.1515 3.70666 29.0022 3.856 28.7035 3.984C28.4475 4.06933 28.1488 4.112 27.8075 4.112C27.4662 4.112 27.1675 4.06933 26.9115 3.984C26.6555 3.856 26.5275 3.70666 26.5275 3.536V3.408V3.216C26.5275 3.30133 26.5915 3.408 26.7195 3.536ZM33.8235 4.496C34.0368 4.70933 34.3995 4.816 34.9115 4.816C35.4235 4.816 35.7862 4.70933 35.9995 4.496C36.1275 4.41066 36.1915 4.32533 36.1915 4.24V4.432V4.56C36.1915 4.73066 36.0635 4.88 35.8075 5.008C35.5515 5.09333 35.2528 5.136 34.9115 5.136C34.5702 5.136 34.2715 5.09333 34.0155 5.008C33.7595 4.88 33.6315 4.73066 33.6315 4.56V4.432V4.24C33.6315 4.32533 33.6955 4.41066 33.8235 4.496ZM30.8795 2.896C31.1355 3.10933 31.5195 3.216 32.0315 3.216C32.5435 3.216 32.9062 3.10933 33.1195 2.896C33.2475 2.81066 33.3115 2.72533 33.3115 2.64V2.832V2.96C33.3115 3.13067 33.1835 3.28 32.9275 3.408C32.6715 3.49333 32.3728 3.536 32.0315 3.536C31.6902 3.536 31.3915 3.49333 31.1355 3.408C30.8368 3.28 30.6875 3.13067 30.6875 2.96V2.832V2.64C30.6875 2.72533 30.7515 2.81066 30.8795 2.896ZM38.4955 5.136V48.848L30.1115 50V6.288L38.4955 5.136ZM38.897 5.136C39.153 5.30666 39.537 5.392 40.049 5.392C40.561 5.392 40.9237 5.30666 41.137 5.136C41.265 5.008 41.329 4.90133 41.329 4.816V5.008V5.136C41.329 5.30666 41.201 5.456 40.945 5.584C40.689 5.66933 40.3903 5.712 40.049 5.712C39.7077 5.712 39.409 5.66933 39.153 5.584C38.8543 5.456 38.705 5.30666 38.705 5.136V5.008V4.816C38.705 4.90133 38.769 5.008 38.897 5.136ZM36.017 3.536C36.2303 3.70666 36.593 3.792 37.105 3.792C37.617 3.792 38.001 3.70666 38.257 3.536C38.385 3.408 38.449 3.30133 38.449 3.216V3.408V3.536C38.449 3.70666 38.2997 3.856 38.001 3.984C37.745 4.06933 37.4463 4.112 37.105 4.112C36.7637 4.112 36.465 4.06933 36.209 3.984C35.953 3.856 35.825 3.70666 35.825 3.536V3.408V3.216C35.825 3.30133 35.889 3.408 36.017 3.536ZM43.121 4.496C43.3343 4.70933 43.697 4.816 44.209 4.816C44.721 4.816 45.0837 4.70933 45.297 4.496C45.425 4.41066 45.489 4.32533 45.489 4.24V4.432V4.56C45.489 4.73066 45.361 4.88 45.105 5.008C44.849 5.09333 44.5503 5.136 44.209 5.136C43.8677 5.136 43.569 5.09333 43.313 5.008C43.057 4.88 42.929 4.73066 42.929 4.56V4.432V4.24C42.929 4.32533 42.993 4.41066 43.121 4.496ZM40.177 2.896C40.433 3.10933 40.817 3.216 41.329 3.216C41.841 3.216 42.2037 3.10933 42.417 2.896C42.545 2.81066 42.609 2.72533 42.609 2.64V2.832V2.96C42.609 3.13067 42.481 3.28 42.225 3.408C41.969 3.49333 41.6703 3.536 41.329 3.536C40.9877 3.536 40.689 3.49333 40.433 3.408C40.1343 3.28 39.985 3.13067 39.985 2.96V2.832V2.64C39.985 2.72533 40.049 2.81066 40.177 2.896ZM47.793 14.864V48.848L39.409 50V16.016L47.793 14.864ZM38.897 14.864C39.153 15.0347 39.537 15.12 40.049 15.12C40.561 15.12 40.9237 15.0347 41.137 14.864C41.265 14.736 41.329 14.6293 41.329 14.544V14.736V14.864C41.329 15.0347 41.201 15.184 40.945 15.312C40.689 15.3973 40.3903 15.44 40.049 15.44C39.7077 15.44 39.409 15.3973 39.153 15.312C38.8543 15.184 38.705 15.0347 38.705 14.864V14.736V14.544C38.705 14.6293 38.769 14.736 38.897 14.864ZM36.017 13.264C36.2303 13.4347 36.593 13.52 37.105 13.52C37.617 13.52 38.001 13.4347 38.257 13.264C38.385 13.136 38.449 13.0293 38.449 12.944V13.136V13.264C38.449 13.4347 38.2997 13.584 38.001 13.712C37.745 13.7973 37.4463 13.84 37.105 13.84C36.7637 13.84 36.465 13.7973 36.209 13.712C35.953 13.584 35.825 13.4347 35.825 13.264V13.136V12.944C35.825 13.0293 35.889 13.136 36.017 13.264ZM43.121 14.224C43.3343 14.4373 43.697 14.544 44.209 14.544C44.721 14.544 45.0837 14.4373 45.297 14.224C45.425 14.1387 45.489 14.0533 45.489 13.968V14.16V14.288C45.489 14.4587 45.361 14.608 45.105 14.736C44.849 14.8213 44.5503 14.864 44.209 14.864C43.8677 14.864 43.569 14.8213 43.313 14.736C43.057 14.608 42.929 14.4587 42.929 14.288V14.16V13.968C42.929 14.0533 42.993 14.1387 43.121 14.224ZM40.177 12.624C40.433 12.8373 40.817 12.944 41.329 12.944C41.841 12.944 42.2037 12.8373 42.417 12.624C42.545 12.5387 42.609 12.4533 42.609 12.368V12.56V12.688C42.609 12.8587 42.481 13.008 42.225 13.136C41.969 13.2213 41.6703 13.264 41.329 13.264C40.9877 13.264 40.689 13.2213 40.433 13.136C40.1343 13.008 39.985 12.8587 39.985 12.688V12.56V12.368C39.985 12.4533 40.049 12.5387 40.177 12.624ZM39.409 6.288L47.793 5.136V10L39.409 11.152V6.288ZM48.1945 19.664C48.4505 19.8347 48.8345 19.92 49.3465 19.92C49.8585 19.92 50.2212 19.8347 50.4345 19.664C50.5625 19.536 50.6265 19.4293 50.6265 19.344V19.536V19.728C50.6265 19.8987 50.4772 20.0267 50.1785 20.112C49.9652 20.1973 49.6878 20.24 49.3465 20.24C49.0052 20.24 48.7065 20.1973 48.4505 20.112C48.1518 20.0267 48.0025 19.8987 48.0025 19.728V19.536V19.344C48.0025 19.4293 48.0665 19.536 48.1945 19.664ZM45.3145 18.064C45.5278 18.2347 45.8905 18.32 46.4025 18.32C46.9145 18.32 47.2985 18.2347 47.5545 18.064C47.6825 17.936 47.7465 17.8293 47.7465 17.744V17.936V18.128C47.7465 18.2987 47.5972 18.4267 47.2985 18.512C47.0425 18.5973 46.7438 18.64 46.4025 18.64C46.0612 18.64 45.7625 18.5973 45.5065 18.512C45.2505 18.4267 45.1225 18.2987 45.1225 18.128V17.936V17.744C45.1225 17.8293 45.1865 17.936 45.3145 18.064ZM52.4185 14.224C52.6318 14.3947 52.9945 14.48 53.5065 14.48C54.0185 14.48 54.3812 14.3947 54.5945 14.224C54.7225 14.096 54.7865 13.9893 54.7865 13.904V14.096V14.288C54.7865 14.4587 54.6585 14.5867 54.4025 14.672C54.1465 14.7573 53.8478 14.8 53.5065 14.8C53.1652 14.8 52.8665 14.7573 52.6105 14.672C52.3545 14.5867 52.2265 14.4587 52.2265 14.288V14.096V13.904C52.2265 13.9893 52.2905 14.096 52.4185 14.224ZM49.4745 12.624C49.7305 12.7947 50.1145 12.88 50.6265 12.88C51.1385 12.88 51.5012 12.7947 51.7145 12.624C51.8425 12.496 51.9065 12.3893 51.9065 12.304V12.496V12.688C51.9065 12.8587 51.7785 12.9867 51.5225 13.072C51.2665 13.1573 50.9678 13.2 50.6265 13.2C50.2852 13.2 49.9865 13.1573 49.7305 13.072C49.4318 12.9867 49.2825 12.8587 49.2825 12.688V12.496V12.304C49.2825 12.3893 49.3465 12.496 49.4745 12.624ZM56.5785 13.648C56.8345 13.8187 57.1972 13.904 57.6665 13.904C58.1785 13.904 58.5625 13.8187 58.8185 13.648C58.9465 13.52 59.0105 13.4133 59.0105 13.328V13.52V13.712C59.0105 13.84 58.8612 13.968 58.5625 14.096C58.3492 14.1813 58.0718 14.224 57.7305 14.224C57.3892 14.224 57.0905 14.1813 56.8345 14.096C56.5358 13.968 56.3865 13.84 56.3865 13.712V13.52V13.328C56.3865 13.4133 56.4505 13.52 56.5785 13.648ZM53.6985 12.048C53.9118 12.2187 54.2745 12.304 54.7865 12.304C55.2985 12.304 55.6612 12.2187 55.8745 12.048C56.0452 11.92 56.1305 11.8133 56.1305 11.728V11.92V12.048C56.1305 12.2187 55.9812 12.368 55.6825 12.496C55.4265 12.5813 55.1278 12.624 54.7865 12.624C54.4452 12.624 54.1465 12.5813 53.8905 12.496C53.6345 12.368 53.5065 12.2187 53.5065 12.048V11.92V11.728C53.5065 11.8133 53.5705 11.92 53.6985 12.048ZM60.8025 13.008C61.0158 13.2213 61.3785 13.328 61.8905 13.328C62.4025 13.328 62.7652 13.2213 62.9785 13.008C63.1065 12.9227 63.1705 12.8373 63.1705 12.752V12.944V13.072C63.1705 13.2427 63.0425 13.392 62.7865 13.52C62.5305 13.6053 62.2318 13.648 61.8905 13.648C61.5492 13.648 61.2505 13.6053 60.9945 13.52C60.7385 13.392 60.6105 13.2427 60.6105 13.072V12.944V12.752C60.6105 12.8373 60.6745 12.9227 60.8025 13.008ZM57.8585 11.408C58.1145 11.6213 58.4985 11.728 59.0105 11.728C59.5225 11.728 59.8852 11.6213 60.0985 11.408C60.2265 11.3227 60.2905 11.2373 60.2905 11.152V11.344V11.472C60.2905 11.6427 60.1625 11.792 59.9065 11.92C59.6505 12.0053 59.3518 12.048 59.0105 12.048C58.6692 12.048 58.3705 12.0053 58.1145 11.92C57.8158 11.792 57.6665 11.6427 57.6665 11.472V11.344V11.152C57.6665 11.2373 57.7305 11.3227 57.8585 11.408ZM64.9625 12.432C65.2185 12.6453 65.6025 12.752 66.1145 12.752C66.6265 12.752 66.9892 12.6453 67.2025 12.432C67.3305 12.3467 67.3945 12.2613 67.3945 12.176V12.304V12.496C67.3945 12.6667 67.2452 12.7947 66.9465 12.88C66.7332 13.008 66.4558 13.072 66.1145 13.072C65.7732 13.072 65.4745 13.008 65.2185 12.88C64.9198 12.7947 64.7705 12.6667 64.7705 12.496V12.304V12.176C64.7705 12.2613 64.8345 12.3467 64.9625 12.432ZM62.0825 10.832C62.2958 11.0453 62.6585 11.152 63.1705 11.152C63.6825 11.152 64.0452 11.0453 64.2585 10.832C64.4292 10.7467 64.5145 10.6613 64.5145 10.576V10.704V10.896C64.5145 11.0667 64.3652 11.1947 64.0665 11.28C63.8105 11.408 63.5118 11.472 63.1705 11.472C62.8292 11.472 62.5305 11.408 62.2745 11.28C62.0185 11.1947 61.8905 11.0667 61.8905 10.896V10.704V10.576C61.8905 10.6613 61.9545 10.7467 62.0825 10.832ZM73.8585 17.296V46.48L65.4745 47.632V23.312L57.0905 24.528V48.848L48.7065 50V20.816L52.8665 20.24V15.44L69.6345 13.072V16.912C69.8478 16.9547 70.0612 16.976 70.2745 16.976C70.7865 16.976 71.1492 16.8907 71.3625 16.72C71.4905 16.592 71.5545 16.4853 71.5545 16.4V16.592V16.784C71.5545 16.9547 71.4265 17.0827 71.1705 17.168C70.9145 17.2533 70.6158 17.296 70.2745 17.296C70.0612 17.296 69.8478 17.2747 69.6345 17.232V17.936L73.8585 17.296ZM74.242 19.664C74.498 19.8347 74.882 19.92 75.394 19.92C75.906 19.92 76.2687 19.8347 76.482 19.664C76.61 19.536 76.674 19.4293 76.674 19.344V19.536V19.664C76.674 19.8347 76.5247 19.984 76.226 20.112C76.0127 20.1973 75.7353 20.24 75.394 20.24C75.0527 20.24 74.754 20.1973 74.498 20.112C74.1993 19.984 74.05 19.8347 74.05 19.664V19.536V19.344C74.05 19.4293 74.114 19.536 74.242 19.664ZM71.362 18.064C71.5753 18.2347 71.938 18.32 72.45 18.32C72.962 18.32 73.346 18.2347 73.602 18.064C73.73 17.936 73.794 17.8293 73.794 17.744V17.936V18.064C73.794 18.2347 73.6447 18.384 73.346 18.512C73.09 18.5973 72.7913 18.64 72.45 18.64C72.1087 18.64 71.81 18.5973 71.554 18.512C71.298 18.384 71.17 18.2347 71.17 18.064V17.936V17.744C71.17 17.8293 71.234 17.936 71.362 18.064ZM86.85 37.264C87.0633 37.4347 87.426 37.52 87.938 37.52C88.45 37.52 88.8127 37.4347 89.026 37.264C89.154 37.136 89.218 37.0507 89.218 37.008V37.136V37.328C89.218 37.4987 89.09 37.6267 88.834 37.712C88.578 37.7973 88.2793 37.84 87.938 37.84C87.5967 37.84 87.298 37.7973 87.042 37.712C86.786 37.6267 86.658 37.4987 86.658 37.328V37.136V37.008C86.658 37.0507 86.722 37.136 86.85 37.264ZM83.906 35.664C84.162 35.8347 84.546 35.92 85.058 35.92C85.57 35.92 85.9327 35.8347 86.146 35.664C86.274 35.536 86.338 35.4507 86.338 35.408V35.536V35.728C86.338 35.8987 86.21 36.0267 85.954 36.112C85.698 36.1973 85.3993 36.24 85.058 36.24C84.7167 36.24 84.418 36.1973 84.162 36.112C83.8633 36.0267 83.714 35.8987 83.714 35.728V35.536V35.408C83.714 35.4507 83.778 35.536 83.906 35.664ZM78.466 14.224C78.6793 14.3947 79.042 14.48 79.554 14.48C80.066 14.48 80.4287 14.3947 80.642 14.224C80.77 14.096 80.834 13.9893 80.834 13.904V14.096V14.224C80.834 14.3947 80.706 14.544 80.45 14.672C80.194 14.7573 79.8953 14.8 79.554 14.8C79.2127 14.8 78.914 14.7573 78.658 14.672C78.402 14.544 78.274 14.3947 78.274 14.224V14.096V13.904C78.274 13.9893 78.338 14.096 78.466 14.224ZM75.522 12.624C75.778 12.7947 76.162 12.88 76.674 12.88C77.186 12.88 77.5487 12.7947 77.762 12.624C77.89 12.496 77.954 12.3893 77.954 12.304V12.496V12.624C77.954 12.7947 77.826 12.944 77.57 13.072C77.314 13.1573 77.0153 13.2 76.674 13.2C76.3327 13.2 76.034 13.1573 75.778 13.072C75.4793 12.944 75.33 12.7947 75.33 12.624V12.496V12.304C75.33 12.3893 75.394 12.496 75.522 12.624ZM82.626 13.584C82.882 13.7973 83.2447 13.904 83.714 13.904C84.226 13.904 84.61 13.7973 84.866 13.584C84.994 13.4987 85.058 13.4133 85.058 13.328V13.52V13.648C85.058 13.8187 84.9087 13.968 84.61 14.096C84.3967 14.1813 84.1193 14.224 83.778 14.224C83.4367 14.224 83.138 14.1813 82.882 14.096C82.5833 13.968 82.434 13.8187 82.434 13.648V13.52V13.328C82.434 13.4133 82.498 13.4987 82.626 13.584ZM79.746 11.984C79.9593 12.1973 80.322 12.304 80.834 12.304C81.346 12.304 81.7087 12.1973 81.922 11.984C82.0927 11.8987 82.178 11.8133 82.178 11.728V11.92V12.048C82.178 12.2187 82.0287 12.368 81.73 12.496C81.474 12.5813 81.1753 12.624 80.834 12.624C80.4927 12.624 80.194 12.5813 79.938 12.496C79.682 12.368 79.554 12.2187 79.554 12.048V11.92V11.728C79.554 11.8133 79.618 11.8987 79.746 11.984ZM86.85 13.008C87.0633 13.2213 87.426 13.328 87.938 13.328C88.45 13.328 88.8127 13.2213 89.026 13.008C89.154 12.9227 89.218 12.8373 89.218 12.752V12.88V13.072C89.218 13.2427 89.09 13.3707 88.834 13.456C88.578 13.584 88.2793 13.648 87.938 13.648C87.5967 13.648 87.298 13.584 87.042 13.456C86.786 13.3707 86.658 13.2427 86.658 13.072V12.88V12.752C86.658 12.8373 86.722 12.9227 86.85 13.008ZM83.906 11.408C84.162 11.6213 84.546 11.728 85.058 11.728C85.57 11.728 85.9327 11.6213 86.146 11.408C86.274 11.3227 86.338 11.2373 86.338 11.152V11.28V11.472C86.338 11.6427 86.21 11.7707 85.954 11.856C85.698 11.984 85.3993 12.048 85.058 12.048C84.7167 12.048 84.418 11.984 84.162 11.856C83.8633 11.7707 83.714 11.6427 83.714 11.472V11.28V11.152C83.714 11.2373 83.778 11.3227 83.906 11.408ZM95.234 2.128C95.4473 2.29867 95.81 2.384 96.322 2.384C96.834 2.384 97.1967 2.29867 97.41 2.128C97.538 2 97.602 1.89333 97.602 1.808V2V2.128C97.602 2.29867 97.474 2.448 97.218 2.576C96.962 2.66133 96.6633 2.704 96.322 2.704C95.9807 2.704 95.682 2.66133 95.426 2.576C95.17 2.448 95.042 2.29867 95.042 2.128V2V1.808C95.042 1.89333 95.106 2 95.234 2.128ZM92.29 0.527996C92.546 0.698663 92.93 0.783997 93.442 0.783997C93.954 0.783997 94.3167 0.698663 94.53 0.527996C94.658 0.399998 94.722 0.293331 94.722 0.207996V0.399998V0.527996C94.722 0.698663 94.594 0.847997 94.338 0.975998C94.082 1.06133 93.7833 1.104 93.442 1.104C93.1007 1.104 92.802 1.06133 92.546 0.975998C92.2473 0.847997 92.098 0.698663 92.098 0.527996V0.399998V0.207996C92.098 0.293331 92.162 0.399998 92.29 0.527996ZM91.01 2.704C91.266 2.87467 91.65 2.96 92.162 2.96C92.674 2.96 93.0367 2.87467 93.25 2.704C93.378 2.576 93.442 2.46933 93.442 2.384V2.576V2.768C93.442 2.93866 93.2927 3.06666 92.994 3.152C92.7807 3.23733 92.5033 3.28 92.162 3.28C91.8207 3.28 91.522 3.23733 91.266 3.152C90.9673 3.06666 90.818 2.93866 90.818 2.768V2.576V2.384C90.818 2.46933 90.882 2.576 91.01 2.704ZM88.13 1.104C88.3433 1.27466 88.706 1.36 89.218 1.36C89.73 1.36 90.0927 1.27466 90.306 1.104C90.4767 0.975998 90.562 0.869331 90.562 0.783997V0.975998V1.168C90.562 1.296 90.4127 1.424 90.114 1.552C89.858 1.63733 89.5593 1.68 89.218 1.68C88.8767 1.68 88.578 1.63733 88.322 1.552C88.066 1.424 87.938 1.296 87.938 1.168V0.975998V0.783997C87.938 0.869331 88.002 0.975998 88.13 1.104ZM91.522 3.92L99.906 2.704V41.616L95.682 42.192V47.056L78.978 49.36V44.56L74.754 45.136V20.816L78.914 20.24V15.376L91.522 13.648V3.92ZM91.522 37.84V23.312L83.138 24.528V38.096C83.3087 38.1387 83.522 38.16 83.778 38.16C84.29 38.16 84.6527 38.0533 84.866 37.84C84.994 37.7547 85.058 37.6693 85.058 37.584V37.712V37.904C85.058 38.0747 84.9087 38.2027 84.61 38.288C84.3967 38.416 84.1193 38.48 83.778 38.48C83.5647 38.48 83.3513 38.4587 83.138 38.416V39.056L91.522 37.84ZM117.058 12.56C117.271 12.7307 117.634 12.816 118.146 12.816C118.658 12.816 119.042 12.7307 119.298 12.56C119.426 12.432 119.49 12.3253 119.49 12.24V12.432V12.56C119.49 12.7307 119.34 12.88 119.042 13.008C118.786 13.0933 118.487 13.136 118.146 13.136C117.804 13.136 117.506 13.0933 117.25 13.008C116.994 12.88 116.866 12.7307 116.866 12.56V12.432V12.24C116.866 12.3253 116.93 12.432 117.058 12.56ZM114.178 10.96C114.391 11.1307 114.754 11.216 115.266 11.216C115.778 11.216 116.14 11.1307 116.354 10.96C116.482 10.832 116.546 10.7253 116.546 10.64V10.832V10.96C116.546 11.1307 116.418 11.28 116.162 11.408C115.906 11.4933 115.607 11.536 115.266 11.536C114.924 11.536 114.626 11.4933 114.37 11.408C114.114 11.28 113.986 11.1307 113.986 10.96V10.832V10.64C113.986 10.7253 114.05 10.832 114.178 10.96ZM112.898 13.136C113.111 13.3067 113.474 13.392 113.986 13.392C114.498 13.392 114.86 13.3067 115.074 13.136C115.202 13.008 115.266 12.9013 115.266 12.816V13.008V13.2C115.266 13.328 115.138 13.456 114.882 13.584C114.626 13.6693 114.327 13.712 113.986 13.712C113.644 13.712 113.346 13.6693 113.09 13.584C112.834 13.456 112.706 13.328 112.706 13.2V13.008V12.816C112.706 12.9013 112.77 13.008 112.898 13.136ZM109.954 11.536C110.21 11.7067 110.572 11.792 111.042 11.792C111.554 11.792 111.938 11.7067 112.194 11.536C112.322 11.408 112.386 11.3013 112.386 11.216V11.408V11.6C112.386 11.728 112.236 11.856 111.938 11.984C111.724 12.0693 111.426 12.112 111.042 12.112C110.7 12.112 110.423 12.0693 110.21 11.984C109.911 11.856 109.762 11.728 109.762 11.6V11.408V11.216C109.762 11.3013 109.826 11.408 109.954 11.536ZM108.674 13.712C108.887 13.8827 109.25 13.968 109.762 13.968C110.274 13.968 110.658 13.8827 110.914 13.712C111.042 13.584 111.106 13.4987 111.106 13.456V13.584V13.776C111.106 13.9467 110.956 14.0747 110.658 14.16C110.402 14.2453 110.103 14.288 109.762 14.288C109.42 14.288 109.143 14.2453 108.93 14.16C108.631 14.0747 108.482 13.9467 108.482 13.776V13.584V13.456C108.482 13.4987 108.546 13.584 108.674 13.712ZM105.794 12.112C106.007 12.2827 106.37 12.368 106.882 12.368C107.394 12.368 107.756 12.2827 107.97 12.112C108.098 11.984 108.162 11.8987 108.162 11.856V11.984V12.176C108.162 12.3467 108.034 12.4747 107.778 12.56C107.522 12.6453 107.223 12.688 106.882 12.688C106.54 12.688 106.242 12.6453 105.986 12.56C105.73 12.4747 105.602 12.3467 105.602 12.176V11.984V11.856C105.602 11.8987 105.666 11.984 105.794 12.112ZM104.514 14.288C104.727 14.5013 105.09 14.608 105.602 14.608C106.114 14.608 106.476 14.5013 106.69 14.288C106.818 14.2027 106.882 14.1173 106.882 14.032V14.16V14.352C106.882 14.5227 106.754 14.6507 106.498 14.736C106.242 14.864 105.943 14.928 105.602 14.928C105.26 14.928 104.962 14.864 104.706 14.736C104.45 14.6507 104.322 14.5227 104.322 14.352V14.16V14.032C104.322 14.1173 104.386 14.2027 104.514 14.288ZM101.57 12.688C101.826 12.9013 102.188 13.008 102.658 13.008C103.17 13.008 103.554 12.9013 103.81 12.688C103.938 12.6027 104.002 12.5173 104.002 12.432V12.56V12.752C104.002 12.9227 103.852 13.0507 103.554 13.136C103.34 13.264 103.042 13.328 102.658 13.328C102.316 13.328 102.039 13.264 101.826 13.136C101.527 13.0507 101.378 12.9227 101.378 12.752V12.56V12.432C101.378 12.5173 101.442 12.6027 101.57 12.688ZM112.834 37.328C113.047 37.4987 113.41 37.584 113.922 37.584C114.434 37.584 114.818 37.4987 115.074 37.328C115.202 37.2 115.266 37.0933 115.266 37.008V37.2V37.392C115.266 37.5627 115.116 37.6907 114.818 37.776C114.604 37.8613 114.306 37.904 113.922 37.904C113.58 37.904 113.303 37.8613 113.09 37.776C112.791 37.6907 112.642 37.5627 112.642 37.392V37.2V37.008C112.642 37.0933 112.706 37.2 112.834 37.328ZM109.954 35.728C110.167 35.8987 110.53 35.984 111.042 35.984C111.554 35.984 111.916 35.8987 112.13 35.728C112.258 35.6 112.322 35.4933 112.322 35.408V35.6V35.792C112.322 35.9627 112.194 36.0907 111.938 36.176C111.682 36.2613 111.383 36.304 111.042 36.304C110.7 36.304 110.402 36.2613 110.146 36.176C109.89 36.0907 109.762 35.9627 109.762 35.792V35.6V35.408C109.762 35.4933 109.826 35.6 109.954 35.728ZM108.674 37.904C108.887 38.0747 109.25 38.16 109.762 38.16C110.274 38.16 110.636 38.0747 110.85 37.904C110.978 37.8187 111.042 37.7333 111.042 37.648V37.776V37.968C111.042 38.1387 110.914 38.2667 110.658 38.352C110.402 38.4373 110.103 38.48 109.762 38.48C109.42 38.48 109.122 38.4373 108.866 38.352C108.61 38.2667 108.482 38.1387 108.482 37.968V37.776V37.648C108.482 37.7333 108.546 37.8187 108.674 37.904ZM105.73 36.304C105.986 36.4747 106.37 36.56 106.882 36.56C107.394 36.56 107.756 36.4747 107.97 36.304C108.098 36.2187 108.162 36.1333 108.162 36.048V36.176V36.368C108.162 36.5387 108.034 36.6667 107.778 36.752C107.522 36.8373 107.223 36.88 106.882 36.88C106.54 36.88 106.242 36.8373 105.986 36.752C105.687 36.6667 105.538 36.5387 105.538 36.368V36.176V36.048C105.538 36.1333 105.602 36.2187 105.73 36.304ZM104.45 38.48C104.706 38.6933 105.068 38.8 105.538 38.8C106.05 38.8 106.434 38.6933 106.69 38.48C106.818 38.3947 106.882 38.3093 106.882 38.224V38.416V38.544C106.882 38.7147 106.732 38.8427 106.434 38.928C106.22 39.056 105.922 39.12 105.538 39.12C105.196 39.12 104.919 39.056 104.706 38.928C104.407 38.8427 104.258 38.7147 104.258 38.544V38.416V38.224C104.258 38.3093 104.322 38.3947 104.45 38.48ZM101.57 36.88C101.783 37.0933 102.146 37.2 102.658 37.2C103.17 37.2 103.532 37.0933 103.746 36.88C103.916 36.7947 104.002 36.7093 104.002 36.624V36.816V36.944C104.002 37.1147 103.852 37.2427 103.554 37.328C103.298 37.456 102.999 37.52 102.658 37.52C102.316 37.52 102.018 37.456 101.762 37.328C101.506 37.2427 101.378 37.1147 101.378 36.944V36.816V36.624C101.378 36.7093 101.442 36.7947 101.57 36.88ZM100.29 39.12C100.503 39.2907 100.866 39.376 101.378 39.376C101.89 39.376 102.252 39.2907 102.466 39.12C102.594 38.992 102.658 38.8853 102.658 38.8V38.992V39.12C102.658 39.2907 102.53 39.44 102.274 39.568C102.018 39.6533 101.719 39.696 101.378 39.696C101.036 39.696 100.738 39.6533 100.482 39.568C100.226 39.44 100.098 39.2907 100.098 39.12V38.992V38.8C100.098 38.8853 100.162 38.992 100.29 39.12ZM97.3455 37.52C97.6015 37.6907 97.9855 37.776 98.4975 37.776C99.0095 37.776 99.3722 37.6907 99.5855 37.52C99.7135 37.392 99.7775 37.2853 99.7775 37.2V37.392V37.52C99.7775 37.6907 99.6495 37.84 99.3935 37.968C99.1375 38.0533 98.8388 38.096 98.4975 38.096C98.1562 38.096 97.8575 38.0533 97.6015 37.968C97.3028 37.84 97.1535 37.6907 97.1535 37.52V37.392V37.2C97.1535 37.2853 97.2175 37.392 97.3455 37.52ZM121.218 26.512C121.474 26.6827 121.858 26.768 122.37 26.768C122.882 26.768 123.244 26.6827 123.458 26.512C123.586 26.384 123.65 26.2773 123.65 26.192V26.384V26.512C123.65 26.6827 123.522 26.832 123.266 26.96C123.01 27.0453 122.711 27.088 122.37 27.088C122.028 27.088 121.73 27.0453 121.474 26.96C121.175 26.832 121.026 26.6827 121.026 26.512V26.384V26.192C121.026 26.2773 121.09 26.384 121.218 26.512ZM118.338 24.912C118.551 25.0827 118.914 25.168 119.426 25.168C119.938 25.168 120.322 25.0827 120.578 24.912C120.706 24.784 120.77 24.6773 120.77 24.592V24.784V24.912C120.77 25.0827 120.62 25.232 120.322 25.36C120.066 25.4453 119.767 25.488 119.426 25.488C119.084 25.488 118.786 25.4453 118.53 25.36C118.274 25.232 118.146 25.0827 118.146 24.912V24.784V24.592C118.146 24.6773 118.21 24.784 118.338 24.912ZM117.058 27.088C117.271 27.2587 117.634 27.344 118.146 27.344C118.658 27.344 119.042 27.2587 119.298 27.088C119.426 26.96 119.49 26.8533 119.49 26.768V26.96V27.152C119.49 27.3227 119.34 27.4507 119.042 27.536C118.786 27.6213 118.487 27.664 118.146 27.664C117.804 27.664 117.506 27.6213 117.25 27.536C116.994 27.4507 116.866 27.3227 116.866 27.152V26.96V26.768C116.866 26.8533 116.93 26.96 117.058 27.088ZM114.114 25.488C114.37 25.6587 114.754 25.744 115.266 25.744C115.778 25.744 116.14 25.6587 116.354 25.488C116.482 25.36 116.546 25.2533 116.546 25.168V25.36V25.552C116.546 25.68 116.418 25.808 116.162 25.936C115.906 26.0213 115.607 26.064 115.266 26.064C114.924 26.064 114.626 26.0213 114.37 25.936C114.071 25.808 113.922 25.68 113.922 25.552V25.36V25.168C113.922 25.2533 113.986 25.36 114.114 25.488ZM112.834 27.664C113.09 27.8347 113.474 27.92 113.986 27.92C114.498 27.92 114.86 27.8347 115.074 27.664C115.202 27.5787 115.266 27.4933 115.266 27.408V27.536V27.728C115.266 27.8987 115.138 28.0267 114.882 28.112C114.626 28.1973 114.327 28.24 113.986 28.24C113.644 28.24 113.346 28.1973 113.09 28.112C112.791 28.0267 112.642 27.8987 112.642 27.728V27.536V27.408C112.642 27.4933 112.706 27.5787 112.834 27.664ZM109.954 26.064C110.167 26.2347 110.53 26.32 111.042 26.32C111.554 26.32 111.938 26.2347 112.194 26.064C112.322 25.9787 112.386 25.8933 112.386 25.808V25.936V26.128C112.386 26.2987 112.236 26.4267 111.938 26.512C111.682 26.5973 111.383 26.64 111.042 26.64C110.7 26.64 110.402 26.5973 110.146 26.512C109.89 26.4267 109.762 26.2987 109.762 26.128V25.936V25.808C109.762 25.8933 109.826 25.9787 109.954 26.064ZM100.29 19.792C100.503 19.9627 100.866 20.048 101.378 20.048C101.89 20.048 102.274 19.9627 102.53 19.792C102.658 19.664 102.722 19.5573 102.722 19.472V19.664V19.792C102.722 19.9627 102.572 20.112 102.274 20.24C102.018 20.3253 101.719 20.368 101.378 20.368C101.036 20.368 100.738 20.3253 100.482 20.24C100.226 20.112 100.098 19.9627 100.098 19.792V19.664V19.472C100.098 19.5573 100.162 19.664 100.29 19.792ZM97.3455 18.192C97.6015 18.3627 97.9855 18.448 98.4975 18.448C99.0095 18.448 99.3722 18.3627 99.5855 18.192C99.7135 18.064 99.7775 17.9573 99.7775 17.872V18.064V18.192C99.7775 18.3627 99.6495 18.512 99.3935 18.64C99.1375 18.7253 98.8388 18.768 98.4975 18.768C98.1562 18.768 97.8575 18.7253 97.6015 18.64C97.3028 18.512 97.1535 18.3627 97.1535 18.192V18.064V17.872C97.1535 17.9573 97.2175 18.064 97.3455 18.192ZM125.954 27.088V41.616L121.73 42.256V47.056L104.962 49.36V44.56L100.802 45.136V40.272L117.506 37.904V33.104L100.802 35.472V20.944L104.962 20.368V15.504L121.73 13.136V16.976C121.9 17.0187 122.114 17.04 122.37 17.04C122.882 17.04 123.244 16.9547 123.458 16.784C123.586 16.656 123.65 16.5493 123.65 16.464V16.656V16.848C123.65 17.0187 123.522 17.1467 123.266 17.232C123.01 17.3173 122.711 17.36 122.37 17.36C122.156 17.36 121.943 17.3387 121.73 17.296V18L125.954 17.36V22.224L109.186 24.656V28.496C109.356 28.5387 109.548 28.56 109.762 28.56C110.274 28.56 110.658 28.4533 110.914 28.24C111.042 28.1547 111.106 28.0693 111.106 27.984V28.112V28.304C111.106 28.4747 110.956 28.6027 110.658 28.688C110.402 28.816 110.103 28.88 109.762 28.88C109.548 28.88 109.356 28.8587 109.186 28.816V29.456L125.954 27.088ZM130.561 14.288C130.774 14.4587 131.137 14.544 131.649 14.544C132.161 14.544 132.524 14.4587 132.737 14.288C132.865 14.16 132.929 14.0533 132.929 13.968V14.16V14.288C132.929 14.4587 132.801 14.608 132.545 14.736C132.289 14.8213 131.99 14.864 131.649 14.864C131.308 14.864 131.009 14.8213 130.753 14.736C130.497 14.608 130.369 14.4587 130.369 14.288V14.16V13.968C130.369 14.0533 130.433 14.16 130.561 14.288ZM127.617 12.688C127.873 12.8587 128.257 12.944 128.769 12.944C129.281 12.944 129.644 12.8587 129.857 12.688C129.985 12.56 130.049 12.4533 130.049 12.368V12.56V12.688C130.049 12.8587 129.921 13.008 129.665 13.136C129.409 13.2213 129.11 13.264 128.769 13.264C128.428 13.264 128.129 13.2213 127.873 13.136C127.574 13.008 127.425 12.8587 127.425 12.688V12.56V12.368C127.425 12.4533 127.489 12.56 127.617 12.688ZM134.721 13.648C134.977 13.8613 135.361 13.968 135.873 13.968C136.385 13.968 136.748 13.8613 136.961 13.648C137.089 13.5627 137.153 13.4773 137.153 13.392V13.584V13.712C137.153 13.8827 137.004 14.032 136.705 14.16C136.492 14.2453 136.193 14.288 135.809 14.288C135.468 14.288 135.19 14.2453 134.977 14.16C134.678 14.032 134.529 13.8827 134.529 13.712V13.584V13.392C134.529 13.4773 134.593 13.5627 134.721 13.648ZM131.841 12.048C132.054 12.2613 132.417 12.368 132.929 12.368C133.441 12.368 133.804 12.2613 134.017 12.048C134.188 11.9627 134.273 11.8773 134.273 11.792V11.984V12.112C134.273 12.2827 134.124 12.432 133.825 12.56C133.569 12.6453 133.27 12.688 132.929 12.688C132.588 12.688 132.289 12.6453 132.033 12.56C131.777 12.432 131.649 12.2827 131.649 12.112V11.984V11.792C131.649 11.8773 131.713 11.9627 131.841 12.048ZM138.945 13.072C139.158 13.2853 139.521 13.392 140.033 13.392C140.545 13.392 140.908 13.2853 141.121 13.072C141.249 12.9867 141.313 12.9013 141.313 12.816V12.944V13.136C141.313 13.3067 141.185 13.4347 140.929 13.52C140.673 13.648 140.374 13.712 140.033 13.712C139.692 13.712 139.393 13.648 139.137 13.52C138.881 13.4347 138.753 13.3067 138.753 13.136V12.944V12.816C138.753 12.9013 138.817 12.9867 138.945 13.072ZM136.001 11.472C136.257 11.6853 136.641 11.792 137.153 11.792C137.665 11.792 138.028 11.6853 138.241 11.472C138.369 11.3867 138.433 11.3013 138.433 11.216V11.344V11.536C138.433 11.7067 138.305 11.8347 138.049 11.92C137.793 12.048 137.494 12.112 137.153 12.112C136.812 12.112 136.513 12.048 136.257 11.92C135.958 11.8347 135.809 11.7067 135.809 11.536V11.344V11.216C135.809 11.3013 135.873 11.3867 136.001 11.472ZM143.105 12.496C143.361 12.6667 143.724 12.752 144.193 12.752C144.705 12.752 145.089 12.6667 145.345 12.496C145.473 12.368 145.537 12.2827 145.537 12.24V12.368V12.56C145.537 12.7307 145.388 12.8587 145.089 12.944C144.876 13.0293 144.577 13.072 144.193 13.072C143.852 13.072 143.574 13.0293 143.361 12.944C143.062 12.8587 142.913 12.7307 142.913 12.56V12.368V12.24C142.913 12.2827 142.977 12.368 143.105 12.496ZM140.225 10.896C140.438 11.0667 140.801 11.152 141.313 11.152C141.825 11.152 142.188 11.0667 142.401 10.896C142.529 10.768 142.593 10.6827 142.593 10.64V10.768V10.96C142.593 11.1307 142.465 11.2587 142.209 11.344C141.953 11.4293 141.654 11.472 141.313 11.472C140.972 11.472 140.673 11.4293 140.417 11.344C140.161 11.2587 140.033 11.1307 140.033 10.96V10.768V10.64C140.033 10.6827 140.097 10.768 140.225 10.896ZM138.945 37.328C139.158 37.4987 139.521 37.584 140.033 37.584C140.545 37.584 140.908 37.4987 141.121 37.328C141.292 37.2 141.377 37.1147 141.377 37.072V37.2V37.392C141.377 37.5627 141.228 37.6907 140.929 37.776C140.673 37.8613 140.374 37.904 140.033 37.904C139.692 37.904 139.393 37.8613 139.137 37.776C138.881 37.6907 138.753 37.5627 138.753 37.392V37.2V37.072C138.753 37.1147 138.817 37.2 138.945 37.328ZM136.001 35.728C136.257 35.8987 136.641 35.984 137.153 35.984C137.665 35.984 138.028 35.8987 138.241 35.728C138.369 35.6 138.433 35.5147 138.433 35.472V35.6V35.792C138.433 35.9627 138.305 36.0907 138.049 36.176C137.793 36.2613 137.494 36.304 137.153 36.304C136.812 36.304 136.513 36.2613 136.257 36.176C135.958 36.0907 135.809 35.9627 135.809 35.792V35.6V35.472C135.809 35.5147 135.873 35.6 136.001 35.728ZM143.105 36.752C143.361 36.9227 143.745 37.008 144.257 37.008C144.769 37.008 145.132 36.9227 145.345 36.752C145.473 36.624 145.537 36.5173 145.537 36.432V36.624V36.816C145.537 36.944 145.409 37.072 145.153 37.2C144.897 37.2853 144.598 37.328 144.257 37.328C143.916 37.328 143.617 37.2853 143.361 37.2C143.062 37.072 142.913 36.944 142.913 36.816V36.624V36.432C142.913 36.5173 142.977 36.624 143.105 36.752ZM140.225 35.152C140.438 35.3227 140.801 35.408 141.313 35.408C141.825 35.408 142.209 35.3227 142.465 35.152C142.593 35.024 142.657 34.9173 142.657 34.832V35.024V35.216C142.657 35.344 142.508 35.472 142.209 35.6C141.953 35.6853 141.654 35.728 141.313 35.728C140.972 35.728 140.673 35.6853 140.417 35.6C140.161 35.472 140.033 35.344 140.033 35.216V35.024V34.832C140.033 34.9173 140.097 35.024 140.225 35.152ZM147.329 36.176C147.542 36.3467 147.905 36.432 148.417 36.432C148.929 36.432 149.292 36.3467 149.505 36.176C149.633 36.048 149.697 35.9413 149.697 35.856V36.048V36.176C149.697 36.3467 149.569 36.496 149.313 36.624C149.057 36.7093 148.758 36.752 148.417 36.752C148.076 36.752 147.777 36.7093 147.521 36.624C147.265 36.496 147.137 36.3467 147.137 36.176V36.048V35.856C147.137 35.9413 147.201 36.048 147.329 36.176ZM144.385 34.576C144.641 34.7467 145.025 34.832 145.537 34.832C146.049 34.832 146.412 34.7467 146.625 34.576C146.753 34.448 146.817 34.3413 146.817 34.256V34.448V34.576C146.817 34.7467 146.689 34.896 146.433 35.024C146.177 35.1093 145.878 35.152 145.537 35.152C145.196 35.152 144.897 35.1093 144.641 35.024C144.342 34.896 144.193 34.7467 144.193 34.576V34.448V34.256C144.193 34.3413 144.257 34.448 144.385 34.576ZM138.945 27.664C139.158 27.8773 139.521 27.984 140.033 27.984C140.545 27.984 140.908 27.8773 141.121 27.664C141.249 27.5787 141.313 27.4933 141.313 27.408V27.6V27.728C141.313 27.8987 141.185 28.0267 140.929 28.112C140.673 28.24 140.374 28.304 140.033 28.304C139.692 28.304 139.393 28.24 139.137 28.112C138.881 28.0267 138.753 27.8987 138.753 27.728V27.6V27.408C138.753 27.4933 138.817 27.5787 138.945 27.664ZM136.001 26.064C136.257 26.2773 136.641 26.384 137.153 26.384C137.665 26.384 138.028 26.2773 138.241 26.064C138.369 25.9787 138.433 25.8933 138.433 25.808V26V26.128C138.433 26.2987 138.305 26.4267 138.049 26.512C137.793 26.64 137.494 26.704 137.153 26.704C136.812 26.704 136.513 26.64 136.257 26.512C135.958 26.4267 135.809 26.2987 135.809 26.128V26V25.808C135.809 25.8933 135.873 25.9787 136.001 26.064ZM126.337 19.728C126.593 19.8987 126.977 19.984 127.489 19.984C128.001 19.984 128.364 19.8987 128.577 19.728C128.705 19.6 128.769 19.4933 128.769 19.408V19.6V19.792C128.769 19.9627 128.641 20.0907 128.385 20.176C128.129 20.2613 127.83 20.304 127.489 20.304C127.148 20.304 126.849 20.2613 126.593 20.176C126.294 20.0907 126.145 19.9627 126.145 19.792V19.6V19.408C126.145 19.4933 126.209 19.6 126.337 19.728ZM123.457 18.128C123.67 18.2987 124.033 18.384 124.545 18.384C125.057 18.384 125.441 18.2987 125.697 18.128C125.825 18 125.889 17.8933 125.889 17.808V18V18.192C125.889 18.3627 125.74 18.4907 125.441 18.576C125.185 18.6613 124.886 18.704 124.545 18.704C124.204 18.704 123.905 18.6613 123.649 18.576C123.393 18.4907 123.265 18.3627 123.265 18.192V18V17.808C123.265 17.8933 123.329 18 123.457 18.128ZM135.233 39.12L152.001 36.752V46.416L131.009 49.36V44.56L126.849 45.136V20.944L131.009 20.304V15.44L147.777 13.072V16.976C147.948 17.0187 148.161 17.04 148.417 17.04C148.929 17.04 149.292 16.9333 149.505 16.72C149.633 16.6347 149.697 16.5493 149.697 16.464V16.656V16.784C149.697 16.9547 149.569 17.104 149.313 17.232C149.057 17.3173 148.758 17.36 148.417 17.36C148.204 17.36 147.99 17.3387 147.777 17.296V17.936L152.001 17.36V31.888L135.233 34.32V38.096C135.404 38.1387 135.617 38.16 135.873 38.16C136.385 38.16 136.748 38.0747 136.961 37.904C137.089 37.8187 137.153 37.7333 137.153 37.648V37.776V37.968C137.153 38.1387 137.004 38.2667 136.705 38.352C136.492 38.4373 136.214 38.48 135.873 38.48C135.66 38.48 135.446 38.4587 135.233 38.416V39.12ZM143.617 23.44L135.233 24.656V28.496C135.404 28.5387 135.617 28.56 135.873 28.56C136.385 28.56 136.748 28.4747 136.961 28.304C137.089 28.176 137.153 28.0693 137.153 27.984V28.176V28.304C137.153 28.4747 137.004 28.624 136.705 28.752C136.492 28.8373 136.214 28.88 135.873 28.88C135.66 28.88 135.446 28.8587 135.233 28.816V29.456L143.617 28.304V23.44ZM152.385 19.664C152.641 19.8347 153.025 19.92 153.537 19.92C154.049 19.92 154.411 19.8347 154.625 19.664C154.753 19.536 154.817 19.4293 154.817 19.344V19.536V19.728C154.817 19.8987 154.667 20.0267 154.369 20.112C154.155 20.1973 153.878 20.24 153.537 20.24C153.195 20.24 152.897 20.1973 152.641 20.112C152.342 20.0267 152.193 19.8987 152.193 19.728V19.536V19.344C152.193 19.4293 152.257 19.536 152.385 19.664ZM149.505 18.064C149.718 18.2347 150.081 18.32 150.593 18.32C151.105 18.32 151.489 18.2347 151.745 18.064C151.873 17.936 151.937 17.8293 151.937 17.744V17.936V18.128C151.937 18.2987 151.787 18.4267 151.489 18.512C151.233 18.5973 150.934 18.64 150.593 18.64C150.251 18.64 149.953 18.5973 149.697 18.512C149.441 18.4267 149.313 18.2987 149.313 18.128V17.936V17.744C149.313 17.8293 149.377 17.936 149.505 18.064ZM156.609 14.224C156.822 14.3947 157.185 14.48 157.697 14.48C158.209 14.48 158.571 14.3947 158.785 14.224C158.913 14.096 158.977 13.9893 158.977 13.904V14.096V14.288C158.977 14.4587 158.849 14.5867 158.593 14.672C158.337 14.7573 158.038 14.8 157.697 14.8C157.355 14.8 157.057 14.7573 156.801 14.672C156.545 14.5867 156.417 14.4587 156.417 14.288V14.096V13.904C156.417 13.9893 156.481 14.096 156.609 14.224ZM153.665 12.624C153.921 12.7947 154.305 12.88 154.817 12.88C155.329 12.88 155.691 12.7947 155.905 12.624C156.033 12.496 156.097 12.3893 156.097 12.304V12.496V12.688C156.097 12.8587 155.969 12.9867 155.713 13.072C155.457 13.1573 155.158 13.2 154.817 13.2C154.475 13.2 154.177 13.1573 153.921 13.072C153.622 12.9867 153.473 12.8587 153.473 12.688V12.496V12.304C153.473 12.3893 153.537 12.496 153.665 12.624ZM160.769 13.648C161.025 13.8187 161.387 13.904 161.857 13.904C162.369 13.904 162.753 13.8187 163.009 13.648C163.137 13.52 163.201 13.4133 163.201 13.328V13.52V13.712C163.201 13.84 163.051 13.968 162.753 14.096C162.539 14.1813 162.262 14.224 161.921 14.224C161.579 14.224 161.281 14.1813 161.025 14.096C160.726 13.968 160.577 13.84 160.577 13.712V13.52V13.328C160.577 13.4133 160.641 13.52 160.769 13.648ZM157.889 12.048C158.102 12.2187 158.465 12.304 158.977 12.304C159.489 12.304 159.851 12.2187 160.065 12.048C160.235 11.92 160.321 11.8133 160.321 11.728V11.92V12.048C160.321 12.2187 160.171 12.368 159.873 12.496C159.617 12.5813 159.318 12.624 158.977 12.624C158.635 12.624 158.337 12.5813 158.081 12.496C157.825 12.368 157.697 12.2187 157.697 12.048V11.92V11.728C157.697 11.8133 157.761 11.92 157.889 12.048ZM164.993 13.008C165.206 13.2213 165.569 13.328 166.081 13.328C166.593 13.328 166.955 13.2213 167.169 13.008C167.297 12.9227 167.361 12.8373 167.361 12.752V12.944V13.072C167.361 13.2427 167.233 13.392 166.977 13.52C166.721 13.6053 166.422 13.648 166.081 13.648C165.739 13.648 165.441 13.6053 165.185 13.52C164.929 13.392 164.801 13.2427 164.801 13.072V12.944V12.752C164.801 12.8373 164.865 12.9227 164.993 13.008ZM162.049 11.408C162.305 11.6213 162.689 11.728 163.201 11.728C163.713 11.728 164.075 11.6213 164.289 11.408C164.417 11.3227 164.481 11.2373 164.481 11.152V11.344V11.472C164.481 11.6427 164.353 11.792 164.097 11.92C163.841 12.0053 163.542 12.048 163.201 12.048C162.859 12.048 162.561 12.0053 162.305 11.92C162.006 11.792 161.857 11.6427 161.857 11.472V11.344V11.152C161.857 11.2373 161.921 11.3227 162.049 11.408ZM169.153 12.432C169.409 12.6453 169.793 12.752 170.305 12.752C170.817 12.752 171.179 12.6453 171.393 12.432C171.521 12.3467 171.585 12.2613 171.585 12.176V12.304V12.496C171.585 12.6667 171.435 12.7947 171.137 12.88C170.923 13.008 170.646 13.072 170.305 13.072C169.963 13.072 169.665 13.008 169.409 12.88C169.11 12.7947 168.961 12.6667 168.961 12.496V12.304V12.176C168.961 12.2613 169.025 12.3467 169.153 12.432ZM166.273 10.832C166.486 11.0453 166.849 11.152 167.361 11.152C167.873 11.152 168.235 11.0453 168.449 10.832C168.619 10.7467 168.705 10.6613 168.705 10.576V10.704V10.896C168.705 11.0667 168.555 11.1947 168.257 11.28C168.001 11.408 167.702 11.472 167.361 11.472C167.019 11.472 166.721 11.408 166.465 11.28C166.209 11.1947 166.081 11.0667 166.081 10.896V10.704V10.576C166.081 10.6613 166.145 10.7467 166.273 10.832ZM178.049 17.296V46.48L169.665 47.632V23.312L161.281 24.528V48.848L152.897 50V20.816L157.057 20.24V15.44L173.825 13.072V16.912C174.038 16.9547 174.251 16.976 174.465 16.976C174.977 16.976 175.339 16.8907 175.553 16.72C175.681 16.592 175.745 16.4853 175.745 16.4V16.592V16.784C175.745 16.9547 175.617 17.0827 175.361 17.168C175.105 17.2533 174.806 17.296 174.465 17.296C174.251 17.296 174.038 17.2747 173.825 17.232V17.936L178.049 17.296ZM178.432 19.664C178.688 19.8347 179.072 19.92 179.584 19.92C180.096 19.92 180.459 19.8347 180.672 19.664C180.8 19.536 180.864 19.4293 180.864 19.344V19.536V19.664C180.864 19.8347 180.715 19.984 180.416 20.112C180.203 20.1973 179.925 20.24 179.584 20.24C179.243 20.24 178.944 20.1973 178.688 20.112C178.389 19.984 178.24 19.8347 178.24 19.664V19.536V19.344C178.24 19.4293 178.304 19.536 178.432 19.664ZM175.552 18.064C175.765 18.2347 176.128 18.32 176.64 18.32C177.152 18.32 177.536 18.2347 177.792 18.064C177.92 17.936 177.984 17.8293 177.984 17.744V17.936V18.064C177.984 18.2347 177.835 18.384 177.536 18.512C177.28 18.5973 176.981 18.64 176.64 18.64C176.299 18.64 176 18.5973 175.744 18.512C175.488 18.384 175.36 18.2347 175.36 18.064V17.936V17.744C175.36 17.8293 175.424 17.936 175.552 18.064ZM191.04 37.264C191.253 37.4347 191.616 37.52 192.128 37.52C192.64 37.52 193.003 37.4347 193.216 37.264C193.344 37.136 193.408 37.0507 193.408 37.008V37.136V37.328C193.408 37.4987 193.28 37.6267 193.024 37.712C192.768 37.7973 192.469 37.84 192.128 37.84C191.787 37.84 191.488 37.7973 191.232 37.712C190.976 37.6267 190.848 37.4987 190.848 37.328V37.136V37.008C190.848 37.0507 190.912 37.136 191.04 37.264ZM188.096 35.664C188.352 35.8347 188.736 35.92 189.248 35.92C189.76 35.92 190.123 35.8347 190.336 35.664C190.464 35.536 190.528 35.4507 190.528 35.408V35.536V35.728C190.528 35.8987 190.4 36.0267 190.144 36.112C189.888 36.1973 189.589 36.24 189.248 36.24C188.907 36.24 188.608 36.1973 188.352 36.112C188.053 36.0267 187.904 35.8987 187.904 35.728V35.536V35.408C187.904 35.4507 187.968 35.536 188.096 35.664ZM182.656 14.224C182.869 14.3947 183.232 14.48 183.744 14.48C184.256 14.48 184.619 14.3947 184.832 14.224C184.96 14.096 185.024 13.9893 185.024 13.904V14.096V14.224C185.024 14.3947 184.896 14.544 184.64 14.672C184.384 14.7573 184.085 14.8 183.744 14.8C183.403 14.8 183.104 14.7573 182.848 14.672C182.592 14.544 182.464 14.3947 182.464 14.224V14.096V13.904C182.464 13.9893 182.528 14.096 182.656 14.224ZM179.712 12.624C179.968 12.7947 180.352 12.88 180.864 12.88C181.376 12.88 181.739 12.7947 181.952 12.624C182.08 12.496 182.144 12.3893 182.144 12.304V12.496V12.624C182.144 12.7947 182.016 12.944 181.76 13.072C181.504 13.1573 181.205 13.2 180.864 13.2C180.523 13.2 180.224 13.1573 179.968 13.072C179.669 12.944 179.52 12.7947 179.52 12.624V12.496V12.304C179.52 12.3893 179.584 12.496 179.712 12.624ZM186.816 13.584C187.072 13.7973 187.435 13.904 187.904 13.904C188.416 13.904 188.8 13.7973 189.056 13.584C189.184 13.4987 189.248 13.4133 189.248 13.328V13.52V13.648C189.248 13.8187 189.099 13.968 188.8 14.096C188.587 14.1813 188.309 14.224 187.968 14.224C187.627 14.224 187.328 14.1813 187.072 14.096C186.773 13.968 186.624 13.8187 186.624 13.648V13.52V13.328C186.624 13.4133 186.688 13.4987 186.816 13.584ZM183.936 11.984C184.149 12.1973 184.512 12.304 185.024 12.304C185.536 12.304 185.899 12.1973 186.112 11.984C186.283 11.8987 186.368 11.8133 186.368 11.728V11.92V12.048C186.368 12.2187 186.219 12.368 185.92 12.496C185.664 12.5813 185.365 12.624 185.024 12.624C184.683 12.624 184.384 12.5813 184.128 12.496C183.872 12.368 183.744 12.2187 183.744 12.048V11.92V11.728C183.744 11.8133 183.808 11.8987 183.936 11.984ZM191.04 13.008C191.253 13.2213 191.616 13.328 192.128 13.328C192.64 13.328 193.003 13.2213 193.216 13.008C193.344 12.9227 193.408 12.8373 193.408 12.752V12.88V13.072C193.408 13.2427 193.28 13.3707 193.024 13.456C192.768 13.584 192.469 13.648 192.128 13.648C191.787 13.648 191.488 13.584 191.232 13.456C190.976 13.3707 190.848 13.2427 190.848 13.072V12.88V12.752C190.848 12.8373 190.912 12.9227 191.04 13.008ZM188.096 11.408C188.352 11.6213 188.736 11.728 189.248 11.728C189.76 11.728 190.123 11.6213 190.336 11.408C190.464 11.3227 190.528 11.2373 190.528 11.152V11.28V11.472C190.528 11.6427 190.4 11.7707 190.144 11.856C189.888 11.984 189.589 12.048 189.248 12.048C188.907 12.048 188.608 11.984 188.352 11.856C188.053 11.7707 187.904 11.6427 187.904 11.472V11.28V11.152C187.904 11.2373 187.968 11.3227 188.096 11.408ZM199.424 2.128C199.637 2.29867 200 2.384 200.512 2.384C201.024 2.384 201.387 2.29867 201.6 2.128C201.728 2 201.792 1.89333 201.792 1.808V2V2.128C201.792 2.29867 201.664 2.448 201.408 2.576C201.152 2.66133 200.853 2.704 200.512 2.704C200.171 2.704 199.872 2.66133 199.616 2.576C199.36 2.448 199.232 2.29867 199.232 2.128V2V1.808C199.232 1.89333 199.296 2 199.424 2.128ZM196.48 0.527996C196.736 0.698663 197.12 0.783997 197.632 0.783997C198.144 0.783997 198.507 0.698663 198.72 0.527996C198.848 0.399998 198.912 0.293331 198.912 0.207996V0.399998V0.527996C198.912 0.698663 198.784 0.847997 198.528 0.975998C198.272 1.06133 197.973 1.104 197.632 1.104C197.291 1.104 196.992 1.06133 196.736 0.975998C196.437 0.847997 196.288 0.698663 196.288 0.527996V0.399998V0.207996C196.288 0.293331 196.352 0.399998 196.48 0.527996ZM195.2 2.704C195.456 2.87467 195.84 2.96 196.352 2.96C196.864 2.96 197.227 2.87467 197.44 2.704C197.568 2.576 197.632 2.46933 197.632 2.384V2.576V2.768C197.632 2.93866 197.483 3.06666 197.184 3.152C196.971 3.23733 196.693 3.28 196.352 3.28C196.011 3.28 195.712 3.23733 195.456 3.152C195.157 3.06666 195.008 2.93866 195.008 2.768V2.576V2.384C195.008 2.46933 195.072 2.576 195.2 2.704ZM192.32 1.104C192.533 1.27466 192.896 1.36 193.408 1.36C193.92 1.36 194.283 1.27466 194.496 1.104C194.667 0.975998 194.752 0.869331 194.752 0.783997V0.975998V1.168C194.752 1.296 194.603 1.424 194.304 1.552C194.048 1.63733 193.749 1.68 193.408 1.68C193.067 1.68 192.768 1.63733 192.512 1.552C192.256 1.424 192.128 1.296 192.128 1.168V0.975998V0.783997C192.128 0.869331 192.192 0.975998 192.32 1.104ZM195.712 3.92L204.096 2.704V41.616L199.872 42.192V47.056L183.168 49.36V44.56L178.944 45.136V20.816L183.104 20.24V15.376L195.712 13.648V3.92ZM195.712 37.84V23.312L187.328 24.528V38.096C187.499 38.1387 187.712 38.16 187.968 38.16C188.48 38.16 188.843 38.0533 189.056 37.84C189.184 37.7547 189.248 37.6693 189.248 37.584V37.712V37.904C189.248 38.0747 189.099 38.2027 188.8 38.288C188.587 38.416 188.309 38.48 187.968 38.48C187.755 38.48 187.541 38.4587 187.328 38.416V39.056L195.712 37.84Z" fill="white"/>
</svg>
