<svg width="16" height="14" viewBox="0 0 16 14" fill="none" xmlns="http://www.w3.org/2000/svg">
<path fill-rule="evenodd" clip-rule="evenodd" d="M7.70676 0.292786C7.51923 0.105315 7.26492 0 6.99976 0C6.73459 0 6.48028 0.105315 6.29276 0.292786L0.292755 6.29279C0.105284 6.48031 -3.05176e-05 6.73462 -3.05176e-05 6.99979C-3.05176e-05 7.26495 0.105284 7.51926 0.292755 7.70679L6.29276 13.7068C6.48136 13.8889 6.73396 13.9897 6.99616 13.9875C7.25835 13.9852 7.50917 13.88 7.69457 13.6946C7.87998 13.5092 7.98515 13.2584 7.98743 12.9962C7.98971 12.734 7.88891 12.4814 7.70676 12.2928L3.41376 7.99979H14.9998C15.265 7.99979 15.5193 7.89443 15.7069 7.70689C15.8944 7.51936 15.9998 7.265 15.9998 6.99979C15.9998 6.73457 15.8944 6.48022 15.7069 6.29268C15.5193 6.10514 15.265 5.99979 14.9998 5.99979H3.41376L7.70676 1.70679C7.89423 1.51926 7.99954 1.26495 7.99954 0.999786C7.99954 0.734622 7.89423 0.480314 7.70676 0.292786Z" fill="#AA65C6"/>
</svg>
