<svg width="22" height="19" viewBox="0 0 22 19" fill="none" xmlns="http://www.w3.org/2000/svg">
<path d="M11 3.58799C13.76 3.58799 16 5.80055 16 8.52673C16 9.03048 15.9 9.51448 15.76 9.96884L18.82 12.9914C20.21 11.7764 21.31 10.2553 22 8.51685C20.27 4.19052 16 1.11862 11 1.11862C9.73 1.11862 8.51 1.31617 7.36 1.68164L9.53 3.82505C10 3.68677 10.49 3.58799 11 3.58799ZM1.71 0.288916C1.6173 0.380296 1.54375 0.488839 1.49357 0.60833C1.44339 0.727821 1.41756 0.855914 1.41756 0.985278C1.41756 1.11464 1.44339 1.24274 1.49357 1.36223C1.54375 1.48172 1.6173 1.59026 1.71 1.68164L3.68 3.6275C2.03792 4.91196 0.76844 6.60203 0 8.52673C1.73 12.8629 6 15.9348 11 15.9348C12.52 15.9348 13.97 15.6385 15.31 15.1249L18.03 17.8116C18.217 17.9962 18.4706 18.1 18.735 18.1C18.9994 18.1 19.253 17.9962 19.44 17.8116C19.627 17.6269 19.732 17.3764 19.732 17.1152C19.732 16.854 19.627 16.6035 19.44 16.4188L3.13 0.288916C2.74 -0.0963054 2.1 -0.0963054 1.71 0.288916ZM11 13.4655C8.24 13.4655 6 11.2529 6 8.52673C6 7.76616 6.18 7.04511 6.49 6.41295L8.06 7.96371C8.03 8.14151 8 8.32918 8 8.52673C8 10.1664 9.34 11.49 11 11.49C11.2 11.49 11.38 11.4603 11.57 11.4208L13.14 12.9716C12.49 13.2877 11.77 13.4655 11 13.4655ZM13.97 8.20077C13.8983 7.53342 13.5971 6.91052 13.1167 6.43597C12.6363 5.96143 12.0056 5.66394 11.33 5.59312L13.97 8.20077Z" fill="#FFFF00"/>
</svg>
