<svg width="21" height="19" viewBox="0 0 21 19" fill="none" xmlns="http://www.w3.org/2000/svg">
<path fill-rule="evenodd" clip-rule="evenodd" d="M8.08646 1.39224C9.14575 -0.464081 11.8556 -0.464081 12.9135 1.39224L20.6402 14.9325C21.6787 16.7533 20.3452 19 18.228 19H2.77336C0.654765 19 -0.678703 16.7533 0.359823 14.9325L8.08646 1.39224ZM11.8847 14.9065C11.8847 15.2685 11.7388 15.6157 11.4791 15.8717C11.2194 16.1277 10.8672 16.2715 10.5 16.2715C10.1327 16.2715 9.78054 16.1277 9.52086 15.8717C9.26118 15.6157 9.11529 15.2685 9.11529 14.9065C9.11529 14.5445 9.26118 14.1974 9.52086 13.9414C9.78054 13.6854 10.1327 13.5416 10.5 13.5416C10.8672 13.5416 11.2194 13.6854 11.4791 13.9414C11.7388 14.1974 11.8847 14.5445 11.8847 14.9065ZM10.5 3.987C10.1327 3.987 9.78054 4.1308 9.52086 4.38678C9.26118 4.64276 9.11529 4.98993 9.11529 5.35194V9.44677C9.11529 9.80877 9.26118 10.156 9.52086 10.4119C9.78054 10.6679 10.1327 10.8117 10.5 10.8117C10.8672 10.8117 11.2194 10.6679 11.4791 10.4119C11.7388 10.156 11.8847 9.80877 11.8847 9.44677V5.35194C11.8847 4.98993 11.7388 4.64276 11.4791 4.38678C11.2194 4.1308 10.8672 3.987 10.5 3.987Z" fill="#F2994A" fill-opacity="0.8"/>
</svg>
